<svg id="header" xmlns="http://www.w3.org/2000/svg" xmlns:xlink="http://www.w3.org/1999/xlink" viewBox="0 0 1377.44 412.27"><defs><style>.cls-1,.cls-3,.cls-9{fill:none;}.cls-2{clip-path:url(#clip-path);}.cls-10,.cls-11,.cls-3,.cls-4,.cls-5,.cls-6,.cls-7,.cls-8,.cls-9{stroke:#cb4928;stroke-linecap:round;stroke-linejoin:round;}.cls-11,.cls-3,.cls-4,.cls-5,.cls-6,.cls-7,.cls-8{stroke-width:3px;}.cls-12,.cls-4{fill:#cb4928;}.cls-5{fill:#ffd00f;}.cls-6{fill:#367848;}.cls-7{fill:#6278ba;}.cls-10,.cls-8{fill:#8e8f8b;}.cls-10{stroke-width:5px;}.cls-11{fill:#dc5089;}.cls-12{font-size:58.11px;font-family:Heebo-Thin, Heebo;font-weight:200;}.cls-13{letter-spacing:-0.04em;}.cls-14{letter-spacing:-0.02em;}</style><clipPath id="clip-path" transform="translate(6.94 4.7)"><rect class="cls-1" width="1366" height="406.5"/></clipPath></defs><g class="cls-2"><path class="cls-3" d="M-5.44,206.08" transform="translate(6.94 4.7)"/><path class="cls-3" d="M204.64,358.27" transform="translate(6.94 4.7)"/><line class="cls-3" x1="1.5" y1="173.2" x2="274.4" y2="350.75"/><polyline class="cls-4" points="1.5 106.54 259.96 305.45 309.87 343.85"/><line class="cls-3" x1="339.79" y1="338.03" x2="293.68" y2="331.39"/><polyline class="cls-5" points="483.92 310 241.5 291.24 265.88 310 413.7 323.66"/><polyline class="cls-4" points="19.47 120.37 27.63 2.21 46.75 2.21 46.75 141.36"/><polyline class="cls-3" points="89.78 2.21 79.95 79.88 76.03 110.89 69.92 159.19"/><polyline class="cls-6" points="87.59 19.46 122.31 199.51 100.32 182.59 79.95 79.88"/><line class="cls-3" x1="72.18" y1="141.36" x2="79.85" y2="166.84"/><polyline class="cls-3" points="233.74 88.28 128.42 75.51 97.68 71.79"/><line class="cls-3" x1="92.41" y1="44.43" x2="280.23" y2="55.87"/><line class="cls-3" x1="87.59" y1="27.76" x2="286.59" y2="27.76"/><line class="cls-3" x1="88.61" y1="11.4" x2="288.48" y2="19.41"/><line class="cls-3" x1="260.59" y1="143.08" x2="199.83" y2="84.17"/><polygon class="cls-3" points="271.85 92.9 265.64 120.33 233.74 88.28 271.85 92.9"/><line class="cls-3" x1="292.38" y1="2.21" x2="271.85" y2="92.9"/><polyline class="cls-3" points="265.64 120.33 257.99 154.1 137.95 81.3 128.42 75.51 128.03 75.27"/><line class="cls-3" x1="130.37" y1="205.71" x2="137.95" y2="81.3"/><line class="cls-3" x1="142.24" y1="214.85" x2="153.3" y2="90.61"/><line class="cls-3" x1="155.69" y1="225.2" x2="175.97" y2="104.35"/><line class="cls-3" x1="172.51" y1="238.15" x2="184.43" y2="109.49"/><line class="cls-3" x1="184.43" y1="247.32" x2="227.54" y2="135.63"/><line class="cls-3" x1="211.59" y1="253.74" x2="234.99" y2="140.15"/><line class="cls-3" x1="227.54" y1="254.32" x2="251.31" y2="150.05"/><line class="cls-3" x1="174.07" y1="221.34" x2="192.97" y2="225.2"/><line class="cls-3" x1="175.97" y1="205.71" x2="200.49" y2="205.71"/><line class="cls-3" x1="177.48" y1="184.48" x2="209.41" y2="182.59"/><path class="cls-3" d="M172.68,156.66s40.84-7.39,40.16-5.63" transform="translate(6.94 4.7)"/><line class="cls-3" x1="223.29" y1="146.65" x2="182.86" y2="126.4"/><line class="cls-3" x1="137.13" y1="94.85" x2="102.46" y2="96.53"/><line class="cls-3" x1="107.09" y1="120.56" x2="136.23" y2="109.49"/><line class="cls-3" x1="111.1" y1="141.36" x2="134.16" y2="143.08"/><line class="cls-3" x1="116.43" y1="169.01" x2="132.6" y2="169.01"/><line class="cls-3" x1="275.84" y1="75.27" x2="385.64" y2="280.84"/><polyline class="cls-3" points="479.2 295.4 291.12 7.75 282.82 44.43 413.7 285.2"/><line class="cls-3" x1="316.73" y1="151.84" x2="316.73" y2="270.11"/><line class="cls-3" x1="343.74" y1="274.31" x2="348.47" y2="212.11"/><polyline class="cls-7" points="291.12 266.12 287.93 155.46 300.03 120.56 251.7 259.99 188.01 250.07 523.51 302.3"/><line class="cls-7" x1="338.28" y1="79.88" x2="814.05" y2="2.21"/><line class="cls-7" x1="886.95" y1="2.21" x2="360.35" y2="113.62"/><polygon class="cls-5" points="853.75 100.54 834.48 154.29 824.87 148.29 824.86 148.29 812.49 88.14 836.01 83.3 850.67 97.55 853.75 100.54"/><polyline class="cls-6" points="1229.97 2.21 1221.65 3.92 1176.02 13.31 1136.06 21.54 1120.16 24.81 1065.81 36 1027.61 43.86 1011.9 47.1 1004.13 48.7 994.84 50.61 989.71 51.66 975.05 54.68 959.34 57.91 947.32 60.39 928.06 64.36 921.39 65.73 904.85 69.13 891.96 71.79 881.31 73.98 861.9 77.98 836.01 83.3"/><polyline class="cls-3" points="812.49 88.14 771.75 96.54 733.76 104.35 688.72 113.63 664.87 118.54 592.28 133.48 543.57 143.51 504.36 151.58 471.19 158.41 399.3 173.21"/><line class="cls-3" x1="503.33" y1="299.15" x2="471.18" y2="158.4"/><line class="cls-3" x1="532.14" y1="300.62" x2="543.57" y2="143.5"/><line class="cls-3" x1="537.5" y1="242.11" x2="802.8" y2="375.82"/><line class="cls-3" x1="541.05" y1="178.06" x2="822.94" y2="355.23"/><line class="cls-3" x1="592.28" y1="133.48" x2="845.65" y2="331.39"/><line class="cls-3" x1="664.87" y1="118.53" x2="649.35" y2="178.06"/><line class="cls-3" x1="688.72" y1="113.62" x2="679.16" y2="201.34"/><line class="cls-3" x1="733.76" y1="104.35" x2="736.49" y2="247.32"/><line class="cls-3" x1="771.74" y1="96.53" x2="788.66" y2="286.87"/><polyline class="cls-3" points="859.53 316.83 852.13 280.84 839.89 221.34 837.72 210.78 835.15 198.31 830.98 178.05 824.87 148.29"/><line class="cls-3" x1="883.91" y1="291.24" x2="852.13" y2="280.84"/><polyline class="cls-3" points="963.75 207.45 945.44 189.65 918.74 163.7 918.74 163.7 893.72 139.39 893.72 139.38 890.07 135.84 878.62 124.71 872.26 118.54 864.28 110.78 853.75 100.54"/><line class="cls-3" x1="864.28" y1="110.77" x2="852.13" y2="165.31"/><line class="cls-3" x1="878.61" y1="124.71" x2="871.11" y2="177.15"/><line class="cls-3" x1="893.72" y1="139.38" x2="899.88" y2="195.1"/><line class="cls-3" x1="918.74" y1="163.7" x2="928.06" y2="212.68"/><line class="cls-3" x1="945.45" y1="189.65" x2="938.71" y2="219.33"/><polyline class="cls-6" points="898.5 182.64 926.5 204.49 924.07 191.7 895.55 155.94"/><line class="cls-3" x1="861.9" y1="77.97" x2="850.67" y2="97.55"/><line class="cls-3" x1="881.31" y1="73.98" x2="872.26" y2="118.53"/><line class="cls-3" x1="891.96" y1="71.79" x2="890.07" y2="135.84"/><polyline class="cls-7" points="886.95 187.03 866.47 226.06 839.89 221.34 934.5 238.15 947.32 224.7 938.72 219.33 928.06 212.69 928.06 212.68 899.88 195.1 886.95 187.03 876.78 180.69 871.11 177.15 864.28 172.89 852.13 165.31 844.12 160.3 834.48 154.29"/><path class="cls-3" d="M845.18,218.81,869.84,176Z" transform="translate(6.94 4.7)"/><line class="cls-3" x1="864.28" y1="172.89" x2="835.15" y2="198.31"/><line class="cls-3" x1="844.11" y1="160.31" x2="830.98" y2="178.06"/><line class="cls-3" x1="890.07" y1="116.84" x2="972.46" y2="198.31"/><polyline class="cls-3" points="891.97 79.88 907.61 97.55 992.58 193.57"/><line class="cls-3" x1="928.06" y1="64.36" x2="907.6" y2="97.55"/><line class="cls-3" x1="947.32" y1="60.39" x2="929.6" y2="122.4"/><polyline class="cls-8" points="910.26 1.5 959.34 57.92 949.93 145.37 956.73 153.06 972.46 110.77 994.84 50.61 959.34 57.92"/><line class="cls-3" x1="998.09" y1="195.83" x2="975.05" y2="103.81"/><line class="cls-3" x1="986.57" y1="71.79" x2="1004.12" y2="198.31"/><line class="cls-3" x1="1011.9" y1="47.1" x2="1022.35" y2="205.81"/><line class="cls-3" x1="975.05" y1="54.68" x2="932.37" y2="1.9"/><line class="cls-3" x1="958.86" y1="2.11" x2="989.71" y2="51.66"/><line class="cls-3" x1="995.91" y1="1.5" x2="1004.12" y2="48.7"/><path class="cls-3" d="M897.91,64.43" transform="translate(6.94 4.7)"/><path class="cls-3" d="M907.2,26.2" transform="translate(6.94 4.7)"/><path class="cls-3" d="M914.45,61" transform="translate(6.94 4.7)"/><path class="cls-3" d="M926.55,33" transform="translate(6.94 4.7)"/><path class="cls-3" d="M945.68,52.39" transform="translate(6.94 4.7)"/><path class="cls-3" d="M945.68,40.79" transform="translate(6.94 4.7)"/><polyline class="cls-3" points="1050.48 217.37 1039.63 135.05 1027.62 43.86 1022.35 3.92"/><line class="cls-3" x1="1136.05" y1="229.74" x2="1042.17" y2="154.3"/><line class="cls-3" x1="1159.89" y1="214.85" x2="1033.39" y2="87.7"/><line class="cls-3" x1="1065.8" y1="36" x2="1174.52" y2="205.71"/><polyline class="cls-5" points="1120.16 24.81 1170.54 124.7 1202.56 188.19"/><line class="cls-3" x1="1286.37" y1="135.84" x2="1170.54" y2="124.71"/><line class="cls-3" x1="1145.61" y1="75.27" x2="1326.49" y2="110.77"/><line class="cls-6" x1="1136.05" y1="21.54" x2="1352.93" y2="94.25"/><polyline class="cls-6" points="1176.02 13.31 1187.41 38.76 1220.98 50.02 1221.65 3.92"/><line class="cls-3" x1="1234.15" y1="54.43" x2="1296" y2="2.21"/><line class="cls-3" x1="1273.53" y1="67.63" x2="1307.65" y2="2.21"/><polygon class="cls-8" points="1364.72 2.21 1332.29 87.34 1298.39 75.28 1336.34 2.21 1364.72 2.21"/><path class="cls-7" d="M1360.23,80.66,1369,20.11Z" transform="translate(6.94 4.7)"/><line class="cls-3" x1="307.87" y1="33.37" x2="320.05" y2="2.21"/><line class="cls-3" x1="334.34" y1="73.85" x2="348.26" y2="2.21"/><line class="cls-3" x1="407.3" y1="68.61" x2="397.13" y2="2.21"/><line class="cls-3" x1="346.47" y1="11.4" x2="399.3" y2="19.46"/><line class="cls-3" x1="403.08" y1="41.04" x2="343.29" y2="27.76"/><line class="cls-3" x1="338.94" y1="50.18" x2="387.84" y2="71.79"/><line class="cls-3" x1="493.74" y1="2.21" x2="454" y2="60.99"/><line class="cls-3" x1="445.14" y1="2.21" x2="435.17" y2="64.06"/><line class="cls-3" x1="522.91" y1="49.73" x2="539.96" y2="2.21"/><line class="cls-3" x1="557.88" y1="44.43" x2="557.88" y2="2.21"/><polygon class="cls-4" points="601.03 36.98 617.24 2.21 662.66 2.21 664.87 25.97 601.03 36.98"/><line class="cls-3" x1="711.89" y1="18.88" x2="720.23" y2="2.21"/><line class="cls-3" x1="582.14" y1="264.61" x2="558.9" y2="308.05"/><line class="cls-3" x1="612.29" y1="279.81" x2="592.28" y2="322.92"/><line class="cls-3" x1="656.91" y1="302.3" x2="672.84" y2="358.82"/><line class="cls-3" x1="639.73" y1="293.64" x2="618.75" y2="334.71"/><polygon class="cls-8" points="690.41 319.18 666.05 334.71 672.72 358.38 686.67 364.98 739.37 343.85 690.41 319.18"/><polyline class="cls-4" points="750.84 393.57 777.26 362.95 756.68 352.58 723.17 381.25"/><polyline class="cls-5" points="1228.46 130.27 1201.24 185.57 1189.22 161.74 1200.52 127.59"/><line class="cls-5" x1="1246.26" y1="131.98" x2="1239.2" y2="165.31"/><path class="cls-9" d="M790.37-78.75" transform="translate(6.94 4.7)"/><path class="cls-5" d="M926.55,50.05" transform="translate(6.94 4.7)"/><path class="cls-5" d="M949.19,83" transform="translate(6.94 4.7)"/><path class="cls-10" d="M1369,20.11" transform="translate(6.94 4.7)"/><polyline class="cls-7" points="1367.18 85.25 1375.94 79.88 1375.94 24.81"/><path class="cls-8" d="M204.14,357.91" transform="translate(6.94 4.7)"/><polygon class="cls-8" points="1.5 270.16 159.1 373.18 234.35 358.84 1.5 210.77 1.5 270.16"/><polygon class="cls-5" points="343.4 27.21 338.94 50.19 387.84 71.79 407.3 68.61 403.08 41.04 343.4 27.21"/><polygon class="cls-11" points="876.78 180.69 852.13 223.51 866.47 226.06 886.95 187.03 876.78 180.69"/><polygon class="cls-11" points="228.06 135.94 184.63 246.81 188.01 250.07 218.32 254.79 235.11 140.47 228.06 135.94"/><path class="cls-8" d="M-259,455.72" transform="translate(6.94 4.7)"/><polygon class="cls-4" points="1375.94 79.88 1375.94 86.43 1114.8 249.57 982.13 195.03 776.57 410.77 539.92 305.32 212.2 369.08 159.86 379.26 1.5 275.74 1.5 270.16 159.1 373.18 211.43 363 539.16 299.25 775.8 404.7 981.37 188.96 1114.04 243.5 1375.94 79.88"/><line class="cls-3" x1="936.55" y1="32.31" x2="911.75" y2="68.36"/><line class="cls-3" x1="917.13" y1="9.58" x2="871.71" y2="75.94"/><line class="cls-3" x1="922.51" y1="16.85" x2="898.61" y2="69.88"/><polyline class="cls-3" points="873.51 5.34 867.59 28.38 854.68 78.67"/><line class="cls-3" x1="818.83" y1="16.85" x2="866.78" y2="29.88"/><line class="cls-3" x1="797.76" y1="21.55" x2="860.96" y2="51.39"/><line class="cls-3" x1="850.65" y1="9.73" x2="869.62" y2="19.12"/><line class="cls-3" x1="880.68" y1="3.22" x2="897.11" y2="36.85"/><line class="cls-3" x1="864.24" y1="41.7" x2="886.65" y2="53.82"/><polygon class="cls-7" points="873.51 5.34 864.25 41.7 886.65 53.82 897.81 38.06 880.68 3.22 873.51 5.34"/></g><text class="cls-12" transform="translate(398.04 160.36) rotate(-11.37)">I<tspan class="cls-13" x="15.15" y="0">T</tspan><tspan x="47.64" y="0">AMAR</tspan><tspan class="cls-14" x="204.88" y="0"> </tspan><tspan x="217.65" y="0">TRAININ</tspan></text></svg>